# xmcd CD database file
# Copyright (C) 1996 Ti Kan
#
# Track frame offsets:
#  150
#  17725
#  31575
#  56812
#  71587
#  86050
#  100600
#  116000
#  140000
#  159050
#  176212
#  193462
#  212500
#  237000
#  250325
#  264762
#
# Disc length: 3725 seconds
#
# Revision: 2
# Processed by: cddbd v1.4b41PL1 Copyright (c) Steve Scherf et al.
# Submitted via: CDWizzard Release:4.12
#
DISCID=d70e8b10
DTITLE=Eddie C. Campbell - Mind Trouble
DYEAR=1900
DGENRE=
TTITLE0=Do What You Wanna Do
TTITLE1=Mind Trouble
TTITLE2=You Worry Me
TTITLE3=The Bug
TTITLE4=Head Clear
TTITLE5=Everything Gonna Be Allright
TTITLE6=Alimony
TTITLE7=Life Is Like A Game
TTITLE8=Shake For Me
TTITLE9=Five And A Half
TTITLE10=Vibrations In The Air
TTITLE11=Devil's Walk
TTITLE12=Loneliness And Me
TTITLE13=Eddie's Rock
TTITLE14=Head Clear
TTITLE15=Please Love Me
EXTD=DTCD-3014
EXTT0=
EXTT1=
EXTT2=
EXTT3=
EXTT4=
EXTT5=
EXTT6=
EXTT7=
EXTT8=
EXTT9=
EXTT10=
EXTT11=
EXTT12=
EXTT13=
EXTT14=
EXTT15=
PLAYORDER=
